<mxfile host="65bd71144e">
    <diagram id="fxDwd3Ba2V-4Y-DWc4rr" name="第 1 页">
        <mxGraphModel dx="1582" dy="913" grid="1" gridSize="10" guides="1" tooltips="1" connect="1" arrows="1" fold="1" page="1" pageScale="1" pageWidth="827" pageHeight="1169" math="0" shadow="0">
            <root>
                <mxCell id="0"/>
                <mxCell id="1" parent="0"/>
                <mxCell id="33" value="A" style="ellipse;whiteSpace=wrap;html=1;aspect=fixed;fontSize=16;fillColor=#1ba1e2;fontColor=#ffffff;strokeColor=#006EAF;" vertex="1" parent="1">
                    <mxGeometry x="413" y="10" width="80" height="80" as="geometry"/>
                </mxCell>
                <mxCell id="34" value="B" style="ellipse;whiteSpace=wrap;html=1;aspect=fixed;fontSize=16;fillColor=#1ba1e2;fontColor=#ffffff;strokeColor=#006EAF;" vertex="1" parent="1">
                    <mxGeometry x="310" y="140" width="80" height="80" as="geometry"/>
                </mxCell>
                <mxCell id="35" value="C" style="ellipse;whiteSpace=wrap;html=1;aspect=fixed;fontSize=16;" vertex="1" parent="1">
                    <mxGeometry x="590" y="140" width="80" height="80" as="geometry"/>
                </mxCell>
                <mxCell id="37" value="D" style="ellipse;whiteSpace=wrap;html=1;aspect=fixed;fontSize=16;labelBackgroundColor=none;fillColor=#60a917;fontColor=#ffffff;strokeColor=#2D7600;" vertex="1" parent="1">
                    <mxGeometry x="210" y="260" width="80" height="80" as="geometry"/>
                </mxCell>
                <mxCell id="38" value="E" style="ellipse;whiteSpace=wrap;html=1;aspect=fixed;fontSize=16;" vertex="1" parent="1">
                    <mxGeometry x="380" y="260" width="80" height="80" as="geometry"/>
                </mxCell>
                <mxCell id="40" value="F" style="ellipse;whiteSpace=wrap;html=1;aspect=fixed;fontSize=16;" vertex="1" parent="1">
                    <mxGeometry x="490" y="260" width="80" height="80" as="geometry"/>
                </mxCell>
                <mxCell id="41" value="G" style="ellipse;whiteSpace=wrap;html=1;aspect=fixed;fontSize=16;" vertex="1" parent="1">
                    <mxGeometry x="650" y="260" width="80" height="80" as="geometry"/>
                </mxCell>
                <mxCell id="55" value="" style="endArrow=classic;html=1;fontSize=16;" edge="1" parent="1">
                    <mxGeometry relative="1" as="geometry">
                        <mxPoint x="570" y="310" as="sourcePoint"/>
                        <mxPoint x="650" y="310" as="targetPoint"/>
                    </mxGeometry>
                </mxCell>
                <mxCell id="56" value="sibling" style="edgeLabel;resizable=0;html=1;align=center;verticalAlign=middle;fontSize=16;" connectable="0" vertex="1" parent="55">
                    <mxGeometry relative="1" as="geometry"/>
                </mxCell>
                <mxCell id="58" value="" style="endArrow=classic;html=1;fontSize=16;entryX=0;entryY=0.5;entryDx=0;entryDy=0;" edge="1" parent="1" target="38">
                    <mxGeometry relative="1" as="geometry">
                        <mxPoint x="290" y="299.33" as="sourcePoint"/>
                        <mxPoint x="370" y="299.33" as="targetPoint"/>
                    </mxGeometry>
                </mxCell>
                <mxCell id="59" value="sibling" style="edgeLabel;resizable=0;html=1;align=center;verticalAlign=middle;fontSize=16;" connectable="0" vertex="1" parent="58">
                    <mxGeometry relative="1" as="geometry"/>
                </mxCell>
                <mxCell id="62" value="" style="endArrow=classic;html=1;fontSize=16;" edge="1" parent="1" target="35">
                    <mxGeometry relative="1" as="geometry">
                        <mxPoint x="390" y="179.99999999999991" as="sourcePoint"/>
                        <mxPoint x="480" y="180.67" as="targetPoint"/>
                    </mxGeometry>
                </mxCell>
                <mxCell id="63" value="sibling" style="edgeLabel;resizable=0;html=1;align=center;verticalAlign=middle;fontSize=16;" connectable="0" vertex="1" parent="62">
                    <mxGeometry relative="1" as="geometry"/>
                </mxCell>
                <mxCell id="64" value="" style="endArrow=classic;html=1;fontSize=16;exitX=0;exitY=1;exitDx=0;exitDy=0;entryX=0.676;entryY=0.015;entryDx=0;entryDy=0;entryPerimeter=0;" edge="1" parent="1" source="33" target="34">
                    <mxGeometry relative="1" as="geometry">
                        <mxPoint x="400" y="189.9999999999999" as="sourcePoint"/>
                        <mxPoint x="350" y="140" as="targetPoint"/>
                    </mxGeometry>
                </mxCell>
                <mxCell id="65" value="child" style="edgeLabel;resizable=0;html=1;align=center;verticalAlign=middle;fontSize=16;" connectable="0" vertex="1" parent="64">
                    <mxGeometry relative="1" as="geometry"/>
                </mxCell>
                <mxCell id="66" value="" style="endArrow=classic;html=1;fontSize=16;exitX=0;exitY=1;exitDx=0;exitDy=0;entryX=0.76;entryY=0.049;entryDx=0;entryDy=0;entryPerimeter=0;" edge="1" parent="1" source="34" target="37">
                    <mxGeometry relative="1" as="geometry">
                        <mxPoint x="330.6357287525381" y="210.0042712474618" as="sourcePoint"/>
                        <mxPoint x="269.99999999999994" y="272.91999999999996" as="targetPoint"/>
                    </mxGeometry>
                </mxCell>
                <mxCell id="67" value="child" style="edgeLabel;resizable=0;html=1;align=center;verticalAlign=middle;fontSize=16;" connectable="0" vertex="1" parent="66">
                    <mxGeometry relative="1" as="geometry"/>
                </mxCell>
                <mxCell id="68" value="" style="endArrow=classic;html=1;fontSize=16;" edge="1" parent="1">
                    <mxGeometry relative="1" as="geometry">
                        <mxPoint x="230" y="330" as="sourcePoint"/>
                        <mxPoint x="170" y="400" as="targetPoint"/>
                    </mxGeometry>
                </mxCell>
                <mxCell id="69" value="child" style="edgeLabel;resizable=0;html=1;align=center;verticalAlign=middle;fontSize=16;" connectable="0" vertex="1" parent="68">
                    <mxGeometry relative="1" as="geometry"/>
                </mxCell>
                <mxCell id="70" value="" style="endArrow=classic;html=1;fontSize=16;entryX=0.726;entryY=0.065;entryDx=0;entryDy=0;entryPerimeter=0;exitX=0;exitY=1;exitDx=0;exitDy=0;" edge="1" parent="1" source="35" target="40">
                    <mxGeometry relative="1" as="geometry">
                        <mxPoint x="600" y="220" as="sourcePoint"/>
                        <mxPoint x="550" y="272.91999999999996" as="targetPoint"/>
                    </mxGeometry>
                </mxCell>
                <mxCell id="71" value="child" style="edgeLabel;resizable=0;html=1;align=center;verticalAlign=middle;fontSize=16;" connectable="0" vertex="1" parent="70">
                    <mxGeometry relative="1" as="geometry"/>
                </mxCell>
                <mxCell id="72" value="" style="group;fontSize=16;" vertex="1" connectable="0" parent="1">
                    <mxGeometry x="115" y="400" width="270" height="80" as="geometry"/>
                </mxCell>
                <mxCell id="43" value="H" style="ellipse;whiteSpace=wrap;html=1;aspect=fixed;fontSize=16;" vertex="1" parent="72">
                    <mxGeometry width="80" height="80" as="geometry"/>
                </mxCell>
                <mxCell id="44" value="I" style="ellipse;whiteSpace=wrap;html=1;aspect=fixed;fontSize=16;" vertex="1" parent="72">
                    <mxGeometry x="190" width="80" height="80" as="geometry"/>
                </mxCell>
                <mxCell id="60" value="" style="endArrow=classic;html=1;fontSize=16;entryX=0;entryY=0.5;entryDx=0;entryDy=0;" edge="1" parent="72" target="44">
                    <mxGeometry relative="1" as="geometry">
                        <mxPoint x="80" y="39.32999999999993" as="sourcePoint"/>
                        <mxPoint x="160" y="39.32999999999993" as="targetPoint"/>
                    </mxGeometry>
                </mxCell>
                <mxCell id="61" value="sibling" style="edgeLabel;resizable=0;html=1;align=center;verticalAlign=middle;fontSize=16;" connectable="0" vertex="1" parent="60">
                    <mxGeometry relative="1" as="geometry"/>
                </mxCell>
                <mxCell id="75" value="1.oldFiber的多个子元素是用sibling + child指针的对象结构存储的" style="text;html=1;strokeColor=none;fillColor=none;align=left;verticalAlign=middle;whiteSpace=wrap;rounded=0;fontSize=16;" vertex="1" parent="1">
                    <mxGeometry x="40" y="30" width="280" height="70" as="geometry"/>
                </mxCell>
                <mxCell id="76" value="A" style="ellipse;whiteSpace=wrap;html=1;aspect=fixed;fontSize=16;fillColor=#1ba1e2;fontColor=#ffffff;strokeColor=#006EAF;" vertex="1" parent="1">
                    <mxGeometry x="430" y="609" width="80" height="80" as="geometry"/>
                </mxCell>
                <mxCell id="77" value="B" style="ellipse;whiteSpace=wrap;html=1;aspect=fixed;fontSize=16;fillColor=#1ba1e2;fontColor=#ffffff;strokeColor=#006EAF;" vertex="1" parent="1">
                    <mxGeometry x="300" y="739" width="80" height="80" as="geometry"/>
                </mxCell>
                <mxCell id="78" value="C" style="ellipse;whiteSpace=wrap;html=1;aspect=fixed;fontSize=16;" vertex="1" parent="1">
                    <mxGeometry x="560" y="739" width="80" height="80" as="geometry"/>
                </mxCell>
                <mxCell id="79" value="D" style="ellipse;whiteSpace=wrap;html=1;aspect=fixed;fontSize=16;labelBackgroundColor=none;fillColor=#60a917;fontColor=#ffffff;strokeColor=#2D7600;" vertex="1" parent="1">
                    <mxGeometry x="200" y="859" width="80" height="80" as="geometry"/>
                </mxCell>
                <mxCell id="80" value="E" style="ellipse;whiteSpace=wrap;html=1;aspect=fixed;fontSize=16;" vertex="1" parent="1">
                    <mxGeometry x="360" y="859" width="80" height="80" as="geometry"/>
                </mxCell>
                <mxCell id="81" value="F" style="ellipse;whiteSpace=wrap;html=1;aspect=fixed;fontSize=16;" vertex="1" parent="1">
                    <mxGeometry x="480" y="859" width="80" height="80" as="geometry"/>
                </mxCell>
                <mxCell id="82" value="G" style="ellipse;whiteSpace=wrap;html=1;aspect=fixed;fontSize=16;" vertex="1" parent="1">
                    <mxGeometry x="640" y="859" width="80" height="80" as="geometry"/>
                </mxCell>
                <mxCell id="89" value="" style="endArrow=classic;html=1;fontSize=16;exitX=0;exitY=1;exitDx=0;exitDy=0;entryX=0.676;entryY=0.015;entryDx=0;entryDy=0;entryPerimeter=0;" edge="1" source="76" target="77" parent="1">
                    <mxGeometry relative="1" as="geometry">
                        <mxPoint x="390" y="788.9999999999999" as="sourcePoint"/>
                        <mxPoint x="340" y="739" as="targetPoint"/>
                    </mxGeometry>
                </mxCell>
                <mxCell id="91" value="" style="endArrow=classic;html=1;fontSize=16;exitX=0;exitY=1;exitDx=0;exitDy=0;entryX=0.76;entryY=0.049;entryDx=0;entryDy=0;entryPerimeter=0;" edge="1" source="77" target="79" parent="1">
                    <mxGeometry relative="1" as="geometry">
                        <mxPoint x="320.6357287525381" y="809.0042712474618" as="sourcePoint"/>
                        <mxPoint x="259.99999999999994" y="871.92" as="targetPoint"/>
                    </mxGeometry>
                </mxCell>
                <mxCell id="93" value="" style="endArrow=classic;html=1;fontSize=16;" edge="1" parent="1">
                    <mxGeometry relative="1" as="geometry">
                        <mxPoint x="220" y="929.0000000000001" as="sourcePoint"/>
                        <mxPoint x="160" y="999" as="targetPoint"/>
                    </mxGeometry>
                </mxCell>
                <mxCell id="95" value="" style="endArrow=classic;html=1;fontSize=16;entryX=0.726;entryY=0.065;entryDx=0;entryDy=0;entryPerimeter=0;exitX=0;exitY=1;exitDx=0;exitDy=0;" edge="1" source="78" target="81" parent="1">
                    <mxGeometry relative="1" as="geometry">
                        <mxPoint x="590" y="819" as="sourcePoint"/>
                        <mxPoint x="540" y="871.92" as="targetPoint"/>
                    </mxGeometry>
                </mxCell>
                <mxCell id="102" value="2. 新的Element的多个子元素是用数组结构存储的" style="text;html=1;strokeColor=none;fillColor=none;align=left;verticalAlign=middle;whiteSpace=wrap;rounded=0;fontSize=16;" vertex="1" parent="1">
                    <mxGeometry x="30" y="629" width="280" height="70" as="geometry"/>
                </mxCell>
                <mxCell id="98" value="H" style="ellipse;whiteSpace=wrap;html=1;aspect=fixed;fontSize=16;" vertex="1" parent="1">
                    <mxGeometry x="105" y="999" width="80" height="80" as="geometry"/>
                </mxCell>
                <mxCell id="99" value="I" style="ellipse;whiteSpace=wrap;html=1;aspect=fixed;fontSize=16;" vertex="1" parent="1">
                    <mxGeometry x="295" y="999" width="80" height="80" as="geometry"/>
                </mxCell>
                <mxCell id="103" value="" style="endArrow=classic;html=1;fontSize=16;exitX=1;exitY=1;exitDx=0;exitDy=0;entryX=0;entryY=0;entryDx=0;entryDy=0;" edge="1" parent="1" source="76" target="78">
                    <mxGeometry relative="1" as="geometry">
                        <mxPoint x="424.7157287525383" y="687.2842712474617" as="sourcePoint"/>
                        <mxPoint x="364.0799999999999" y="750.2" as="targetPoint"/>
                    </mxGeometry>
                </mxCell>
                <mxCell id="104" value="" style="endArrow=classic;html=1;fontSize=16;exitX=1;exitY=1;exitDx=0;exitDy=0;entryX=0.5;entryY=0;entryDx=0;entryDy=0;" edge="1" parent="1" source="77" target="80">
                    <mxGeometry relative="1" as="geometry">
                        <mxPoint x="321.7157287525381" y="817.2842712474621" as="sourcePoint"/>
                        <mxPoint x="270.79999999999995" y="872.9200000000001" as="targetPoint"/>
                    </mxGeometry>
                </mxCell>
                <mxCell id="105" value="" style="endArrow=classic;html=1;fontSize=16;entryX=0;entryY=0;entryDx=0;entryDy=0;exitX=1;exitY=1;exitDx=0;exitDy=0;" edge="1" parent="1" source="78" target="82">
                    <mxGeometry relative="1" as="geometry">
                        <mxPoint x="601.7157287525381" y="817.2842712474619" as="sourcePoint"/>
                        <mxPoint x="548.0799999999999" y="874.2" as="targetPoint"/>
                    </mxGeometry>
                </mxCell>
                <mxCell id="106" value="" style="endArrow=classic;html=1;fontSize=16;entryX=0;entryY=0;entryDx=0;entryDy=0;exitX=0.721;exitY=0.985;exitDx=0;exitDy=0;exitPerimeter=0;" edge="1" parent="1" source="79" target="99">
                    <mxGeometry relative="1" as="geometry">
                        <mxPoint x="230" y="939" as="sourcePoint"/>
                        <mxPoint x="170" y="1009" as="targetPoint"/>
                    </mxGeometry>
                </mxCell>
                <mxCell id="107" value="children" style="rounded=0;whiteSpace=wrap;html=1;fontSize=16;fillColor=none;dashed=1;align=left;" vertex="1" parent="1">
                    <mxGeometry x="200" y="738.5" width="530" height="81" as="geometry"/>
                </mxCell>
                <mxCell id="108" value="children" style="rounded=0;whiteSpace=wrap;html=1;fontSize=16;fillColor=none;dashed=1;align=left;" vertex="1" parent="1">
                    <mxGeometry x="130" y="858" width="610" height="82" as="geometry"/>
                </mxCell>
                <mxCell id="109" value="children" style="rounded=0;whiteSpace=wrap;html=1;fontSize=16;fillColor=none;dashed=1;align=left;" vertex="1" parent="1">
                    <mxGeometry x="30" y="999" width="370" height="82" as="geometry"/>
                </mxCell>
            </root>
        </mxGraphModel>
    </diagram>
</mxfile>